<svg width="12" height="18" viewBox="0 0 12 18" fill="none" xmlns="http://www.w3.org/2000/svg">
<path d="M9.43144 0C10.1271 0 10.7291 0.242553 11.2375 0.72766C11.7458 1.21277 12 1.78723 12 2.45106V15.5489C12 16.2128 11.7458 16.7872 11.2375 17.2723C10.7291 17.7574 10.1271 18 9.43144 18H2.56856C1.84615 18 1.23746 17.7574 0.742475 17.2723C0.247492 16.7872 0 16.2128 0 15.5489V2.45106C0 1.78723 0.247492 1.21277 0.742475 0.72766C1.23746 0.242553 1.84615 0 2.56856 0H9.43144ZM7.70569 16.3532V15.5489H4.29431V16.3532H7.70569ZM10.4749 13.9021V2.45106H1.48495V13.9021H10.4749Z" fill="#E10000"/>
</svg>
