<svg width="27" height="27" viewBox="0 0 27 27" fill="none" xmlns="http://www.w3.org/2000/svg">
<rect width="26.8538" height="26.8538" rx="13.4269" fill="url(#paint0_linear)"/>
<path d="M13.4073 9.44434C12.356 9.44434 11.3477 9.86196 10.6044 10.6053C9.86098 11.3487 9.44336 12.3569 9.44336 13.4082C9.44336 14.4595 9.86098 15.4678 10.6044 16.2111C11.3477 16.9545 12.356 17.3721 13.4073 17.3721C14.4586 17.3721 15.4668 16.9545 16.2102 16.2111C16.9535 15.4678 17.3712 14.4595 17.3712 13.4082C17.3712 12.3569 16.9535 11.3487 16.2102 10.6053C15.4668 9.86196 14.4586 9.44434 13.4073 9.44434ZM13.4073 15.9825C12.7243 15.9825 12.0693 15.7112 11.5863 15.2283C11.1034 14.7454 10.8321 14.0904 10.8321 13.4074C10.8321 12.7244 11.1034 12.0694 11.5863 11.5865C12.0693 11.1035 12.7243 10.8322 13.4073 10.8322C14.0902 10.8322 14.7452 11.1035 15.2282 11.5865C15.7111 12.0694 15.9824 12.7244 15.9824 13.4074C15.9824 14.0904 15.7111 14.7454 15.2282 15.2283C14.7452 15.7112 14.0902 15.9825 13.4073 15.9825Z" fill="white"/>
<path d="M17.5315 10.2225C18.0419 10.2225 18.4556 9.80875 18.4556 9.29838C18.4556 8.78801 18.0419 8.37427 17.5315 8.37427C17.0212 8.37427 16.6074 8.78801 16.6074 9.29838C16.6074 9.80875 17.0212 10.2225 17.5315 10.2225Z" fill="white"/>
<path d="M20.7237 8.35889C20.5252 7.84642 20.222 7.38102 19.8333 6.99249C19.4446 6.60397 18.9791 6.30088 18.4666 6.10262C17.8668 5.87747 17.2331 5.75573 16.5926 5.74258C15.7671 5.70658 15.5056 5.69629 13.4122 5.69629C11.3188 5.69629 11.0505 5.69629 10.2319 5.74258C9.59183 5.75506 8.95864 5.87683 8.35963 6.10262C7.84694 6.30065 7.38131 6.60366 6.99261 6.99221C6.60391 7.38076 6.30072 7.84628 6.1025 8.35889C5.87731 8.95863 5.75585 9.59233 5.74332 10.2328C5.70646 11.0575 5.69531 11.319 5.69531 13.4132C5.69531 15.5066 5.69531 15.7732 5.74332 16.5936C5.75618 17.2348 5.87705 17.8675 6.1025 18.4684C6.30128 18.9808 6.60476 19.4461 6.99356 19.8346C7.38235 20.2231 7.84791 20.5263 8.36049 20.7247C8.95836 20.9589 9.59181 21.0893 10.2336 21.1104C11.0591 21.1464 11.3206 21.1576 13.414 21.1576C15.5073 21.1576 15.7757 21.1576 16.5943 21.1104C17.2348 21.0974 17.8684 20.9759 18.4683 20.7512C18.9807 20.5525 19.4461 20.2492 19.8347 19.8605C20.2233 19.4719 20.5267 19.0065 20.7254 18.4941C20.9509 17.894 21.0717 17.2614 21.0846 16.6202C21.1214 15.7955 21.1326 15.534 21.1326 13.4398C21.1326 11.3455 21.1326 11.0798 21.0846 10.2594C21.0746 9.60985 20.9525 8.96689 20.7237 8.35889ZM19.6796 16.5302C19.674 17.0242 19.5839 17.5136 19.413 17.9772C19.2842 18.3105 19.0871 18.6133 18.8344 18.8659C18.5816 19.1185 18.2788 19.3154 17.9454 19.4439C17.4869 19.6141 17.0027 19.7042 16.5138 19.7105C15.6994 19.7483 15.4696 19.7577 13.3814 19.7577C11.2914 19.7577 11.078 19.7577 10.2481 19.7105C9.75945 19.7046 9.27545 19.6144 8.8174 19.4439C8.48281 19.3162 8.17875 19.1196 7.92491 18.867C7.67107 18.6143 7.4731 18.3112 7.3438 17.9772C7.1753 17.5186 7.08517 17.0349 7.07719 16.5464C7.04033 15.7321 7.03176 15.5023 7.03176 13.4141C7.03176 11.325 7.03176 11.1115 7.07719 10.2808C7.08273 9.78708 7.17291 9.29794 7.3438 8.83466C7.60526 8.1583 8.14103 7.62595 8.8174 7.36706C9.27568 7.19745 9.75954 7.10728 10.2481 7.10046C11.0634 7.0636 11.2923 7.05331 13.3814 7.05331C15.4705 7.05331 15.6848 7.05331 16.5138 7.10046C17.0027 7.10634 17.487 7.19653 17.9454 7.36706C18.2788 7.49588 18.5815 7.69299 18.8343 7.94573C19.087 8.19847 19.2841 8.50126 19.413 8.83466C19.5814 9.29325 19.6716 9.77692 19.6796 10.2654C19.7164 11.0806 19.7258 11.3095 19.7258 13.3986C19.7258 15.4869 19.7259 15.7115 19.689 16.531H19.6796V16.5302Z" fill="white"/>
<defs>
<linearGradient id="paint0_linear" x1="4.2722" y1="22.785" x2="20.5472" y2="4.06876" gradientUnits="userSpaceOnUse">
<stop stop-color="#FFCF57"/>
<stop offset="0.633057" stop-color="#EC497E"/>
<stop offset="1" stop-color="#9A39C4"/>
</linearGradient>
</defs>
</svg>
