<svg width="21" height="21" viewBox="0 0 21 21" fill="none" xmlns="http://www.w3.org/2000/svg">
<path d="M18.6154 10.3058C19.178 9.54543 19.6795 8.74177 20.1153 7.90229L20.72 6.72653L19.4209 6.96428C19.1544 7.01137 18.8855 7.04259 18.6154 7.05782C19.178 6.29747 19.6795 5.4938 20.1153 4.65433L20.7194 3.47987L19.4202 3.71827C17.6386 4.04931 15.7982 3.6667 14.2962 2.65293L10.3519 0L0 6.95388L2.41778 8.57787L0 10.2018L2.41778 11.8258L0 13.4498L10.3519 20.4037L14.1546 17.8482C16.6747 16.1529 18.7255 13.8483 20.1166 11.1483L20.72 9.97449L19.4209 10.2122C19.1544 10.2593 18.8855 10.2905 18.6154 10.3058ZM2.32944 6.95388L10.3519 1.56552L13.5732 3.72931C14.9841 4.6825 16.6573 5.17165 18.3594 5.12853C17.1049 7.17787 15.4234 8.93283 13.4297 10.274L10.3519 12.3423L2.32944 6.95388ZM13.4297 16.7699L10.3519 18.8382L2.32944 13.4498L3.5825 12.6053L10.3519 17.1525L14.1546 14.597C15.4204 13.7459 16.5725 12.737 17.5832 11.5946C17.843 11.6134 18.1028 11.6238 18.3627 11.6186C17.108 13.6705 15.4254 15.4276 13.4297 16.7699ZM13.4297 13.5219L10.3519 15.5902L2.32944 10.2018L3.5825 9.35738L10.3519 13.9045L14.1546 11.349C15.4204 10.498 16.5725 9.48904 17.5832 8.34661C17.843 8.36545 18.1028 8.37584 18.3627 8.37065C17.108 10.4226 15.4254 12.1797 13.4297 13.5219Z" fill="#828282"/>
<path d="M5.95543 6.21143H5.65625C5.38011 6.21143 5.15625 6.43528 5.15625 6.71143V7.01061C5.15625 7.28675 5.38011 7.51061 5.65625 7.51061H5.95543C6.23158 7.51061 6.45543 7.28675 6.45543 7.01061V6.71143C6.45543 6.43528 6.23158 6.21143 5.95543 6.21143Z" fill="#828282"/>
<path d="M8.55309 4.91235H8.25391C7.97776 4.91235 7.75391 5.13621 7.75391 5.41235V5.71154C7.75391 5.98768 7.97776 6.21154 8.25391 6.21154H8.55309C8.82923 6.21154 9.05309 5.98768 9.05309 5.71154V5.41235C9.05309 5.13621 8.82923 4.91235 8.55309 4.91235Z" fill="#828282"/>
<path d="M10.4984 3.61328H10.1992C9.92308 3.61328 9.69922 3.83714 9.69922 4.11328V4.41247C9.69922 4.68861 9.92308 4.91247 10.1992 4.91247H10.4984C10.7745 4.91247 10.9984 4.68861 10.9984 4.41247V4.11328C10.9984 3.83714 10.7745 3.61328 10.4984 3.61328Z" fill="#828282"/>
<path d="M8.55309 7.5105H8.25391C7.97776 7.5105 7.75391 7.73436 7.75391 8.0105V8.30968C7.75391 8.58582 7.97776 8.80968 8.25391 8.80968H8.55309C8.82923 8.80968 9.05309 8.58582 9.05309 8.30968V8.0105C9.05309 7.73436 8.82923 7.5105 8.55309 7.5105Z" fill="#828282"/>
<path d="M10.4984 9.45947H10.1992C9.92308 9.45947 9.69922 9.68333 9.69922 9.95947V10.2587C9.69922 10.5348 9.92308 10.7587 10.1992 10.7587H10.4984C10.7745 10.7587 10.9984 10.5348 10.9984 10.2587V9.95947C10.9984 9.68333 10.7745 9.45947 10.4984 9.45947Z" fill="#828282"/>
<path d="M11.1507 6.21143H10.8516C10.5754 6.21143 10.3516 6.43528 10.3516 6.71143V7.01061C10.3516 7.28675 10.5754 7.51061 10.8516 7.51061H11.1507C11.4269 7.51061 11.6507 7.28675 11.6507 7.01061V6.71143C11.6507 6.43528 11.4269 6.21143 11.1507 6.21143Z" fill="#828282"/>
<path d="M13.1 4.91235H12.8008C12.5246 4.91235 12.3008 5.13621 12.3008 5.41235V5.71154C12.3008 5.98768 12.5246 6.21154 12.8008 6.21154H13.1C13.3761 6.21154 13.6 5.98768 13.6 5.71154V5.41235C13.6 5.13621 13.3761 4.91235 13.1 4.91235Z" fill="#828282"/>
<path d="M13.1 7.5105H12.8008C12.5246 7.5105 12.3008 7.73436 12.3008 8.0105V8.30968C12.3008 8.58582 12.5246 8.80968 12.8008 8.80968H13.1C13.3761 8.80968 13.6 8.58582 13.6 8.30968V8.0105C13.6 7.73436 13.3761 7.5105 13.1 7.5105Z" fill="#828282"/>
</svg>
