<svg width="398" height="144" viewBox="0 0 398 144" fill="none" xmlns="http://www.w3.org/2000/svg">
<path d="M127.6 88.2V110.2H102.8V142H77.6V110.2H0.8V92.2L69.8 1.99999H97.6L32.6 88.2H78.4V60H102.8V88.2H127.6ZM196.942 144C179.876 144 165.876 137.6 154.942 124.8C144.009 112 138.542 94.4 138.542 72C138.542 49.6 144.009 32 154.942 19.2C165.876 6.39999 179.876 -7.62939e-06 196.942 -7.62939e-06C214.142 -7.62939e-06 228.209 6.39999 239.142 19.2C250.076 32 255.542 49.6 255.542 72C255.542 94.4 250.076 112 239.142 124.8C228.209 137.6 214.142 144 196.942 144ZM196.942 121.4C206.942 121.4 214.809 117.267 220.542 109C226.409 100.733 229.342 88.4 229.342 72C229.342 55.6 226.409 43.2667 220.542 35C214.809 26.7333 206.942 22.6 196.942 22.6C187.076 22.6 179.209 26.7333 173.342 35C167.609 43.2667 164.742 55.6 164.742 72C164.742 88.4 167.609 100.733 173.342 109C179.209 117.267 187.076 121.4 196.942 121.4ZM397.913 88.2V110.2H373.113V142H347.913V110.2H271.113V92.2L340.113 1.99999H367.913L302.913 88.2H348.713V60H373.113V88.2H397.913Z" fill="#5D5B5B"/>
</svg>
