<svg width="22" height="16" viewBox="0 0 22 16" fill="none" xmlns="http://www.w3.org/2000/svg">
<path d="M21.4487 8.18962L15.2706 4.48256L16.0416 3.99232C16.1717 3.90924 16.2502 3.76569 16.2502 3.6113C16.2502 3.45692 16.1717 3.31337 16.0416 3.23029L11.076 0.0704319C10.928 -0.0234773 10.7393 -0.0234773 10.5912 0.0704319L5.62563 3.23038C5.49558 3.31341 5.41703 3.45696 5.41703 3.61135C5.41703 3.76573 5.49558 3.90928 5.62559 3.99236L6.39663 4.48349L0.219397 8.18962C0.0839711 8.27088 7.13887e-06 8.41714 7.13887e-06 8.57512C-0.000881592 8.7331 0.0812625 8.88029 0.216688 8.96244L10.5993 15.2823C10.6715 15.3265 10.7528 15.3482 10.8341 15.3482C10.9153 15.3482 10.9966 15.3265 11.0688 15.2823L21.4514 8.96248C21.5869 8.8794 21.6681 8.73314 21.6681 8.57516C21.6672 8.41714 21.5842 8.27088 21.4487 8.18962ZM10.8341 0.986798L14.9591 3.61135L10.8341 6.2359L6.70899 3.61135L10.8341 0.986798ZM7.24799 5.02519L10.5912 7.15226C10.6652 7.1992 10.7501 7.22268 10.8341 7.22268C10.918 7.22268 11.0029 7.1992 11.076 7.15226L14.4192 5.02426L15.0142 5.38178L10.8341 8.04247L6.653 5.38183L7.24799 5.02519ZM1.32447 8.57787L5.7881 5.90097L9.99353 8.57698L5.75382 11.2747L1.32447 8.57787ZM10.8341 14.3677L6.61331 11.7983L10.8341 9.11234L15.0548 11.7983L10.8341 14.3677ZM15.9143 11.2755L11.6746 8.57698L15.8801 5.90097L20.3437 8.5788L15.9143 11.2755Z" fill="#828282"/>
</svg>
