<svg width="20" height="16" viewBox="0 0 20 16" fill="none" xmlns="http://www.w3.org/2000/svg">
<path d="M18.2156 15.714C18.6652 15.714 19.0547 15.5655 19.3859 15.2724L13.7197 9.60602C13.5837 9.70337 13.452 9.79803 13.3275 9.88804C12.9035 10.2005 12.5593 10.4442 12.295 10.6189C12.0308 10.794 11.6793 10.9725 11.2404 11.1547C10.8013 11.3371 10.3922 11.428 10.0126 11.428H10.0015H9.99042C9.61087 11.428 9.20176 11.3372 8.76266 11.1547C8.32356 10.9725 7.972 10.794 7.70802 10.6189C7.44379 10.4442 7.09983 10.2005 6.67557 9.88804C6.55735 9.80137 6.42623 9.70627 6.28448 9.60449L0.617188 15.2724C0.948302 15.5655 1.33809 15.714 1.78762 15.714H18.2156Z" fill="#CECECE"/>
<path d="M1.12733 6.03798C0.703332 5.7553 0.327338 5.43156 0 5.06689V13.6879L4.99417 8.69372C3.99505 7.9962 2.70774 7.11197 1.12733 6.03798Z" fill="#CECECE"/>
<path d="M18.8839 6.03798C17.3638 7.06687 16.0718 7.95263 15.0078 8.69572L20 13.6881V5.06689C19.6799 5.42423 19.3079 5.74775 18.8839 6.03798Z" fill="#CECECE"/>
<path d="M18.2135 0H1.78556C1.21244 0 0.771814 0.193534 0.463139 0.580204C0.15421 0.967054 0 1.45085 0 2.03106C0 2.49972 0.204645 3.00752 0.613754 3.55461C1.02286 4.10148 1.45819 4.53103 1.91951 4.84348C2.17241 5.02216 2.93508 5.55237 4.2075 6.43391C4.89439 6.9099 5.49173 7.32479 6.00505 7.68281C6.44259 7.98767 6.81993 8.25168 7.13147 8.47078C7.16723 8.49587 7.22348 8.5361 7.29813 8.58948C7.37856 8.64725 7.48034 8.72056 7.6059 8.81122C7.84769 8.98609 8.04856 9.12745 8.20854 9.23544C8.36831 9.34346 8.56188 9.46412 8.78897 9.59811C9.01587 9.73191 9.22988 9.83253 9.43075 9.89945C9.63166 9.96633 9.81764 9.99988 9.98873 9.99988H9.99984H10.011C10.182 9.99988 10.368 9.96633 10.569 9.89945C10.7698 9.83253 10.9836 9.73213 11.2107 9.59811C11.4376 9.46412 11.6309 9.34321 11.7912 9.23544C11.9512 9.12745 12.152 8.98613 12.3939 8.81122C12.5192 8.72056 12.6209 8.64721 12.7014 8.58966C12.7761 8.53606 12.8323 8.49609 12.8683 8.47078C13.111 8.3019 13.4892 8.03897 13.9977 7.68589C14.9229 7.04302 16.2856 6.0968 18.0914 4.84348C18.6345 4.46414 19.0882 4.00638 19.4529 3.47084C19.8169 2.9353 19.9994 2.37354 19.9994 1.78574C19.9994 1.29465 19.8224 0.874427 19.4693 0.524431C19.1158 0.174871 18.6972 0 18.2135 0Z" fill="#CECECE"/>
</svg>
