<svg width="24" height="24" viewBox="0 0 24 24" fill="none" xmlns="http://www.w3.org/2000/svg">
<path d="M23.0741 3.46111V1.1537C23.0734 0.516823 22.5573 0.000675998 21.9204 0H18.4593C17.972 0.0014872 17.5383 0.309517 17.3764 0.769151H15.6964C15.5345 0.309517 15.1009 0.0014872 14.6136 0H1.1537C0.516823 0.000675998 0.000675998 0.516823 0 1.1537V3.46111C0.0014872 3.94842 0.309517 4.38205 0.769151 4.54393V6.22396C0.309517 6.38584 0.0014872 6.81947 0 7.30677V9.61418C0.0014872 10.1015 0.309517 10.5351 0.769151 10.697V12.377C0.309517 12.539 0.0014872 12.9726 0 13.4599V15.7673C0.0014872 16.2546 0.309517 16.6882 0.769151 16.8501V18.5301C0.309517 18.692 0.0014872 19.1257 0 19.613V21.9204C0.000675998 22.5573 0.516823 23.0734 1.1537 23.0741H4.61481C5.10212 23.0726 5.53575 22.7646 5.69763 22.3049H7.37766C7.53954 22.7646 7.97317 23.0726 8.46048 23.0741H21.9204C22.5573 23.0734 23.0734 22.5573 23.0741 21.9204V19.613C23.0726 19.1257 22.7646 18.692 22.3049 18.5301V16.8501C22.7646 16.6882 23.0725 16.2546 23.0741 15.7673V13.4598C23.0726 12.9725 22.7646 12.5389 22.3049 12.377V10.697C22.7646 10.5351 23.0725 10.1015 23.0741 9.61414V7.30673C23.0726 6.81943 22.7646 6.3858 22.3049 6.22387V4.54388C22.7646 4.38205 23.0726 3.94842 23.0741 3.46111ZM0.769151 1.1537C0.769376 0.941395 0.941395 0.769331 1.1537 0.769151H14.6136C14.8259 0.769376 14.998 0.941395 14.9981 1.1537V3.46111C14.9979 3.67342 14.8259 3.84548 14.6136 3.84566H1.1537C0.941395 3.84544 0.769331 3.67342 0.769151 3.46111V1.1537ZM0.769151 7.30677C0.769376 7.09447 0.941395 6.9224 1.1537 6.92222H4.61481C4.82712 6.92245 4.99919 7.09447 4.99937 7.30677V9.61418C4.99914 9.82649 4.82712 9.99856 4.61481 9.99874H1.1537C0.941395 9.99851 0.769331 9.82645 0.769151 9.61418V7.30677ZM0.769151 13.4599C0.769376 13.2476 0.941395 13.0755 1.1537 13.0753H14.6136C14.8259 13.0756 14.998 13.2476 14.9981 13.4599V15.7673C14.9979 15.9796 14.8259 16.1517 14.6136 16.1519H1.1537C0.941395 16.1516 0.769331 15.9796 0.769151 15.7673V13.4599ZM4.99937 21.9204C4.99914 22.1327 4.82712 22.3047 4.61481 22.3049H1.1537C0.941395 22.3047 0.769331 22.1327 0.769151 21.9204V19.613C0.769376 19.4007 0.941395 19.2286 1.1537 19.2284H4.61481C4.82712 19.2286 4.99919 19.4007 4.99937 19.613V21.9204ZM7.30677 19.613V21.5358H5.76852V19.613C5.76784 18.9761 5.2517 18.4599 4.61481 18.4593H1.53826V16.921H14.6135C15.2504 16.9203 15.7666 16.4042 15.7673 15.7673V13.4599C15.7666 12.823 15.2504 12.3069 14.6135 12.3062H1.53826V10.7679H4.61481C5.2517 10.7673 5.76784 10.2511 5.76852 9.61423V7.30682C5.76784 6.66994 5.2517 6.15379 4.61481 6.15312H1.53826V4.61481H14.6135C15.2504 4.61414 15.7666 4.09799 15.7673 3.46111V1.53826H17.3056V3.46111C17.3062 4.09799 17.8224 4.61414 18.4593 4.61481H21.5358V6.15307H8.46048C7.8236 6.15375 7.30745 6.66989 7.30677 7.30677V9.61418C7.30745 10.2511 7.8236 10.7672 8.46048 10.7679H21.5358V12.3061H18.4593C17.8224 12.3068 17.3062 12.823 17.3056 13.4598V15.7673C17.3062 16.4041 17.8224 16.9203 18.4593 16.921H21.5358V18.4593H8.46048C7.8236 18.4599 7.3075 18.9761 7.30677 19.613ZM22.3049 21.9204C22.3047 22.1327 22.1327 22.3047 21.9204 22.3049H8.46048C8.24817 22.3047 8.07611 22.1327 8.07593 21.9204V19.613C8.07615 19.4007 8.24817 19.2286 8.46048 19.2284H21.9204C22.1327 19.2286 22.3047 19.4007 22.3049 19.613V21.9204ZM22.3049 15.7673C22.3047 15.9796 22.1327 16.1517 21.9204 16.1519H18.4593C18.247 16.1516 18.0749 15.9796 18.0747 15.7673V13.4599C18.0749 13.2476 18.247 13.0755 18.4593 13.0753H21.9204C22.1327 13.0756 22.3047 13.2476 22.3049 13.4599V15.7673ZM22.3049 9.61418C22.3047 9.82649 22.1327 9.99856 21.9204 9.99874H8.46048C8.24817 9.99851 8.07611 9.82645 8.07593 9.61418V7.30677C8.07615 7.09447 8.24817 6.9224 8.46048 6.92222H21.9204C22.1327 6.92245 22.3047 7.09447 22.3049 7.30677V9.61418ZM21.9204 3.84566H18.4593C18.247 3.84544 18.0749 3.67342 18.0747 3.46111V1.1537C18.0749 0.941395 18.247 0.769331 18.4593 0.769151H21.9204C22.1327 0.769376 22.3047 0.941395 22.3049 1.1537V3.46111C22.3047 3.67342 22.1327 3.84548 21.9204 3.84566Z" fill="#B6B6B6"/>
</svg>
