<svg width="52" height="52" viewBox="0 0 52 52" fill="none" xmlns="http://www.w3.org/2000/svg">
<path fill-rule="evenodd" clip-rule="evenodd" d="M9.28676 44.2241C10.4791 46.3382 11.4309 47.5405 13.3947 48.5224C17.0718 50.6365 20.3081 48.7529 23.5744 49.0735C27.4219 49.4542 27.3618 52.5703 31.9106 51.0573C35.8482 49.1136 35.1769 46.3582 42.4711 44.2542C47.5108 42.2202 50.2862 37.3007 48.7733 32.5916C48.7733 32.6216 48.7833 32.6416 48.7833 32.6717C49.7051 38.3828 45.2865 42.8214 40.2568 44.2041C37.0005 45.0958 35.5176 47.5305 33.1931 49.4242C33.0027 49.6546 32.7222 49.855 32.4016 50.0253C28.9749 52.3899 26.7205 49.3039 24.6766 48.5525C21.9012 47.5205 20.2881 49.2538 16.1601 48.6827C10.6294 47.9213 8.92606 42.12 7.18269 39.2344C6.2609 37.7115 4.49748 36.459 3.05469 34.9962C3.99651 36.0983 5.14875 37.2907 6.2108 38.7234C7.53337 40.4969 8.39504 42.4807 9.28676 44.2241Z" fill="#C59F78"/>
<path fill-rule="evenodd" clip-rule="evenodd" d="M10.8113 7.55268C4.11832 10.1577 2.05432 14.416 3.13642 18.9648C3.76764 21.5799 2.79576 24.6157 1.63351 27.0104C-1.59274 33.6332 5.06015 35.7072 7.18426 39.224C8.92764 42.1096 10.6209 47.9109 16.1617 48.6724C20.2897 49.2435 21.9028 47.5101 24.6782 48.5421C26.7121 49.2936 28.9765 52.3896 32.4031 50.015C35.2286 48.0612 36.6514 45.1856 40.2684 44.1937C45.2881 42.821 49.7067 38.3824 48.7949 32.6613C47.843 26.7599 50.0273 27.3911 50.9691 21.3494C51.5001 17.9428 45.5286 14.6364 44.3262 10.4483C43.0838 6.13994 39.2965 3.28441 35.94 3.11408C31.6417 2.89365 29.0566 3.36456 25.8504 1.60114C17.2638 -3.12802 15.9412 5.55881 10.8113 7.55268ZM25.9506 7.31221C36.0302 7.31221 44.196 15.478 44.196 25.5576C44.196 35.6371 36.0302 43.8029 25.9506 43.8029C15.8711 43.8029 7.70527 35.6371 7.70527 25.5576C7.70527 15.478 15.8711 7.31221 25.9506 7.31221ZM40.8595 25.1468C41.2102 25.1468 41.5008 25.4373 41.5008 25.788C41.5008 26.1387 41.2102 26.4293 40.8595 26.4293C40.5088 26.4293 40.2183 26.1387 40.2183 25.788C40.2183 25.4373 40.5088 25.1468 40.8595 25.1468ZM10.9315 25.1468C11.2822 25.1468 11.5728 25.4373 11.5728 25.788C11.5728 26.1387 11.2822 26.4293 10.9315 26.4293C10.5808 26.4293 10.2903 26.1387 10.2903 25.788C10.2903 25.4373 10.5808 25.1468 10.9315 25.1468ZM9.82939 27.2909L10.9315 26.7098L12.0337 27.2909L11.8233 26.0585L12.715 25.1868L11.4826 25.0065L10.9315 23.8843L10.3805 25.0065L9.14807 25.1868L10.0398 26.0585L9.82939 27.2909ZM19.2176 19.2353C20.8708 19.3856 20.6904 20.0168 20.6904 21.0588L20.6604 27.6516C20.6604 28.1626 20.7405 28.7838 20.4199 29.0644C20.0592 29.375 19.5783 29.2748 19.1074 29.405V29.9461L23.4658 29.9761C23.4959 30.0262 23.4758 29.9861 23.4959 30.0563C23.5059 30.0863 23.5059 30.1064 23.5059 30.1465C23.5059 30.2066 23.5059 30.2967 23.5059 30.3669C23.5059 30.5172 23.5059 30.6574 23.5059 30.8077C23.5059 31.0883 23.4758 31.3187 23.3155 31.4991C23.0149 31.8397 22.4939 31.7896 21.9629 31.8698V32.4309L26.8123 32.4409V31.8698C25.3495 31.6794 25.1491 31.8698 25.2192 29.936C25.9106 29.7457 26.4516 29.6856 27.0928 29.2147C27.4335 28.9642 27.3934 28.9441 27.5537 28.8139C27.8543 28.9942 29.8782 32.2405 30.0586 32.4209L32.7738 32.4309V31.8297C32.5534 31.7295 32.4132 31.8297 31.9022 31.5191C31.1808 31.0883 30.7099 30.3168 30.1989 29.6254C29.6278 28.864 28.9965 27.9522 28.4154 27.2208C28.2651 27.0304 28.2852 27.0004 28.2952 26.6998C28.9364 26.5595 29.7981 26.0285 30.1287 25.6878C30.6097 25.1868 30.9102 24.5155 30.8702 23.5437C30.7499 20.9987 27.8142 21.0388 27.714 20.9486L27.674 20.8284C27.6639 20.7883 27.6639 20.7382 27.6539 20.6881C27.6339 20.5779 27.6139 20.4978 27.5838 20.3976C27.5337 20.2373 27.4636 20.0769 27.3634 19.9367C26.7722 19.0449 25.7302 18.7143 24.608 18.6642C23.7263 18.6341 22.8045 18.6542 21.9228 18.6442C21.0111 18.6442 20.1093 18.6341 19.1975 18.6341L19.2176 19.2353ZM22.3837 19.566L22.3737 20.9587L25.7502 20.9687C25.7302 20.3875 25.3996 19.9267 25.099 19.6962C24.4678 19.2253 23.6161 19.3054 22.8346 19.3155C22.3236 19.3355 22.3837 19.2854 22.3837 19.566ZM22.3737 22.5016V23.6839H23.4959L23.5059 22.692C23.5059 22.3113 23.4658 22.0307 23.2454 21.8604C23.0851 21.7402 22.6342 21.6099 22.3837 21.6199L22.3737 22.5016ZM25.2292 23.0327C25.5198 22.8523 25.7803 22.1209 25.7703 21.63H25.2292V23.0327ZM22.3637 25.0366C22.3637 25.6277 22.3036 28.3931 22.4038 28.6736C22.534 29.0443 22.9949 29.3249 23.5059 29.3249V24.3452C23.2454 24.3152 22.8747 24.3452 22.5941 24.3452C22.3036 24.3552 22.3637 24.2651 22.3637 25.0366ZM25.2292 24.9764V26.5395L26.3414 26.5595C26.3314 26.0886 26.2111 25.7179 26.0007 25.3973C25.8705 25.1868 25.4897 24.746 25.2292 24.7059V24.9764ZM25.2292 29.0343C25.4897 28.9642 25.8104 28.5734 25.9406 28.353C26.1109 28.0724 26.2512 27.6516 26.2913 27.2508H25.2292V29.0343ZM25.2292 23.9745C25.2994 24.0246 25.9907 24.1849 26.151 24.235C26.9025 24.4855 27.8343 25.0967 28.0948 25.8581C28.3352 25.7279 28.5958 25.277 28.716 24.9664C28.8663 24.5757 28.9164 24.0747 28.8763 23.6138C28.8362 23.1629 28.706 22.7722 28.4956 22.4816C28.3453 22.2712 27.9746 21.8804 27.6339 21.8203C27.3233 22.9525 26.3915 23.5136 25.3695 23.7941C25.2292 23.8342 25.2192 23.8242 25.2292 23.9745ZM39.7474 27.2909L40.8495 26.7098L41.9516 27.2909L41.7512 26.0585L42.643 25.1868L41.4106 25.0065L40.8595 23.8843L40.3084 25.0065L39.0761 25.1868L39.9678 26.0585L39.7474 27.2909ZM25.9506 13.6144C29.247 13.6144 32.2328 14.947 34.397 17.1112C36.5612 19.2754 37.8938 22.2612 37.8938 25.5576C37.8938 28.854 36.5612 31.8397 34.397 34.0039C32.2328 36.1681 29.247 37.5007 25.9506 37.5007C22.6542 37.5007 19.6685 36.1681 17.5043 34.0039C15.33 31.8498 13.9975 28.854 13.9975 25.5576C13.9975 22.2612 15.33 19.2754 17.4942 17.1112C19.6584 14.947 22.6442 13.6144 25.9506 13.6144ZM33.896 17.6122C31.8621 15.5782 29.0466 14.3158 25.9406 14.3158C22.8346 14.3158 20.0292 15.5782 17.9852 17.6122C15.9613 19.6461 14.6988 22.4515 14.6988 25.5576C14.6988 28.6636 15.9613 31.469 17.9952 33.513C20.0292 35.5469 22.8446 36.8094 25.9506 36.8094C29.0566 36.8094 31.8621 35.5469 33.906 33.513C35.94 31.479 37.2024 28.6636 37.2024 25.5576C37.1924 22.4515 35.93 19.6461 33.896 17.6122ZM15.7509 16.8206L16.0514 16.5L14.9894 15.4981L15.2699 15.1975C15.5505 14.9169 15.801 14.9069 16.2118 15.1574C16.5825 15.3778 16.843 15.5181 16.9532 15.5482L17.2638 15.2175C17.1235 15.1775 16.833 15.0171 16.4121 14.7767C16.1015 14.5963 15.821 14.5462 15.5805 14.6765L15.5705 14.6665C15.7308 14.3258 15.7008 13.915 15.3801 13.6144C15.1898 13.4341 14.9593 13.3439 14.7289 13.3639C14.4483 13.384 14.1778 13.5443 13.8572 13.8849C13.6468 14.1054 13.4564 14.3559 13.3362 14.5462L15.7509 16.8206ZM13.8372 14.436C13.8672 14.3759 13.9574 14.2456 14.1077 14.0954C14.4283 13.7647 14.779 13.6645 15.0996 13.9651C15.3801 14.2256 15.3601 14.6164 15.0495 14.957L14.7489 15.2776L13.8372 14.436ZM18.0253 12.362L16.9432 13.1135L16.332 12.2317L17.4742 11.4402L17.2638 11.1396L15.7609 12.1816L17.6846 14.957L19.2476 13.8749L19.0372 13.5743L17.8349 14.406L17.1436 13.404L18.2257 12.6526L18.0253 12.362ZM20.9509 11.9412L21.6924 12.7828L22.1232 12.6025L19.7586 9.92728L19.2777 10.1277L19.5182 13.6846L19.939 13.5142L19.8588 12.4021L20.9509 11.9412ZM19.7987 12.0514L19.7286 11.0194C19.7085 10.809 19.6785 10.5986 19.6484 10.3882H19.6584C19.7787 10.5485 19.8989 10.7188 20.0592 10.8891L20.7405 11.6606L19.7987 12.0514ZM22.6142 12.5023L24.4678 12.2017L24.4076 11.841L22.9849 12.0714L22.514 9.09566L22.0831 9.1658L22.6142 12.5023ZM26.0208 12.0915C26.161 12.1215 26.3915 12.1616 26.6921 12.1816C27.2431 12.2217 27.6239 12.1516 27.8844 11.9512C28.0647 11.8009 28.195 11.5905 28.225 11.2999C28.2651 10.799 27.9044 10.5084 27.5938 10.3982V10.3882C27.9545 10.288 28.195 10.0175 28.215 9.69683C28.2351 9.43633 28.1449 9.22592 27.9846 9.08565C27.7842 8.89528 27.5137 8.8051 27.0828 8.77504C26.7822 8.755 26.4716 8.755 26.2813 8.78506L26.0208 12.0915ZM26.682 9.10569C26.7522 9.09567 26.8724 9.08565 27.0728 9.10569C27.5137 9.13574 27.8042 9.31609 27.7742 9.70685C27.7541 10.0275 27.4636 10.2479 27.0027 10.2178L26.6119 10.1878L26.682 9.10569ZM26.5718 10.5184L26.9325 10.5485C27.4034 10.5886 27.7842 10.809 27.7541 11.2599C27.714 11.7508 27.2932 11.8811 26.8424 11.851C26.6921 11.841 26.5618 11.8209 26.4817 11.8009L26.5718 10.5184ZM28.726 12.382L29.1468 12.5023L29.5576 11.0995L29.9484 11.2198C30.3191 11.35 30.4493 11.5705 30.4093 12.0414C30.3792 12.4722 30.3692 12.7728 30.3993 12.883L30.8301 13.0133C30.8 12.873 30.8201 12.5323 30.8401 12.0514C30.8601 11.6907 30.78 11.4202 30.5596 11.2599V11.2498C30.9303 11.2398 31.291 11.0294 31.4112 10.6086C31.4813 10.3581 31.4613 10.1076 31.3411 9.91726C31.1908 9.67679 30.9303 9.50646 30.4794 9.37621C30.1888 9.29605 29.8782 9.22592 29.6578 9.20588L28.726 12.382ZM29.9985 9.59664C30.0686 9.59664 30.2189 9.61667 30.4193 9.67679C30.8601 9.81706 31.1106 10.0876 30.9804 10.4984C30.8702 10.8691 30.5195 11.0294 30.0686 10.8992L29.6378 10.7689L29.9985 9.59664ZM32.7037 10.1677L31.281 13.2337L31.6717 13.414L33.0945 10.3481L32.7037 10.1677ZM34.5272 14.5562C34.3369 14.5362 34.0764 14.436 33.8459 14.2957C33.1446 13.8649 33.0243 13.1635 33.4652 12.4622C33.9361 11.7107 34.6475 11.5604 35.3188 11.9712C35.5592 12.1215 35.7296 12.2919 35.8198 12.4522L36.1003 12.2017C36.0302 12.0915 35.8598 11.871 35.4991 11.6506C34.6074 11.0995 33.6255 11.33 33.0644 12.2217C32.4833 13.1635 32.7738 14.0553 33.5754 14.5562C33.9261 14.7767 34.2367 14.8769 34.417 14.8869L34.5272 14.5562ZM34.7677 15.3778L35.0683 15.6884L35.9901 14.7867L36.481 14.7566L36.0702 16.7104L36.4309 17.0811L36.9018 14.7767L38.7855 14.6464L38.4048 14.2557L36.7816 14.406C36.6413 14.426 36.4911 14.446 36.3408 14.4661L36.3307 14.4561L37.493 13.3239L37.1924 13.0133L34.7677 15.3778ZM36.0502 34.3346L35.7496 34.6552L36.8217 35.6571L36.5411 35.9577C36.2606 36.2383 36.0101 36.2483 35.5993 35.9978C35.2286 35.7774 34.9681 35.6371 34.8579 35.607L34.5473 35.9377C34.6876 35.9778 34.9781 36.1381 35.3989 36.3785C35.7095 36.5589 35.9901 36.609 36.2305 36.4787L36.2406 36.4887C36.0803 36.8294 36.1103 37.2402 36.4309 37.5408C36.6213 37.7211 36.8517 37.8113 37.0822 37.7812C37.3627 37.7612 37.6333 37.6009 37.9539 37.2602C38.1643 37.0398 38.3547 36.7893 38.4749 36.599L36.0502 34.3346ZM37.9539 36.7192C37.9238 36.7793 37.8337 36.9096 37.6934 37.0598C37.3728 37.3905 37.0221 37.4907 36.7015 37.1901C36.4209 36.9296 36.4309 36.5388 36.7516 36.1982L37.0521 35.8776L37.9539 36.7192ZM33.8259 38.8533L34.908 38.1119L35.5092 38.9936L34.3669 39.7851L34.5773 40.0857L36.0803 39.0537L34.1665 36.2683L32.6035 37.3404L32.8139 37.641L34.0163 36.8094L34.7076 37.8113L33.6255 38.5527L33.8259 38.8533ZM30.9603 39.3343L30.1989 38.5127L29.778 38.703L32.2128 41.3081L32.6937 41.0877L32.353 37.5408L31.9422 37.7312L32.0625 38.8433L30.9603 39.3343ZM32.1126 39.194L32.2128 40.216C32.2428 40.4264 32.2729 40.6368 32.313 40.8472H32.3029C32.1727 40.6869 32.0525 40.5266 31.8921 40.3562L31.1908 39.6048L32.1126 39.194ZM29.2771 38.8132L27.4235 39.1038L27.4836 39.4645L28.9064 39.2441L29.3773 42.2198L29.8081 42.1497L29.2771 38.8132ZM25.8705 39.224C25.7302 39.194 25.4998 39.1539 25.1992 39.1339C24.6481 39.0938 24.2674 39.1639 24.0069 39.3643C23.8265 39.5146 23.6963 39.725 23.6662 40.0156C23.6261 40.5165 23.9868 40.8071 24.2974 40.9173V40.9273C23.9367 41.0275 23.6963 41.2981 23.6762 41.6187C23.6562 41.8792 23.7464 42.0896 23.9067 42.2299C24.1071 42.4202 24.3776 42.5104 24.8084 42.5405C25.109 42.5605 25.4196 42.5605 25.61 42.5305L25.8705 39.224ZM25.2092 42.2098C25.1391 42.2199 25.0188 42.2299 24.8184 42.2098C24.3776 42.1798 24.087 41.9994 24.1171 41.6087C24.1371 41.288 24.4277 41.0676 24.8886 41.0977L25.2793 41.1277L25.2092 42.2098ZM25.3094 40.7971L24.9487 40.767C24.4778 40.727 24.097 40.5065 24.1271 40.0557C24.1672 39.5647 24.588 39.4345 25.0389 39.4645C25.1892 39.4745 25.3194 39.4946 25.3996 39.5146L25.3094 40.7971ZM23.1652 38.9134L22.7444 38.7932L22.3236 40.1959L21.9328 40.0757C21.5621 39.9454 21.4319 39.725 21.472 39.2541C21.502 38.8233 21.512 38.5227 21.482 38.4125L21.0511 38.2822C21.0812 38.4225 21.0612 38.7632 21.0411 39.2441C21.0211 39.6048 21.1012 39.8753 21.3217 40.0356V40.0456C20.9509 40.0557 20.5902 40.2661 20.47 40.6869C20.3999 40.9374 20.4199 41.1879 20.5401 41.3782C20.6904 41.6187 20.9509 41.789 21.4018 41.9193C21.6924 42.0094 22.003 42.0696 22.2234 42.0896L23.1652 38.9134ZM21.8928 41.6888C21.8226 41.6888 21.6723 41.6688 21.472 41.6087C21.0311 41.4684 20.7806 41.1979 20.9109 40.7871C21.0211 40.4164 21.3818 40.256 21.8226 40.3863L22.2535 40.5165L21.8928 41.6888ZM19.1975 41.0877L20.6303 38.0317L20.2396 37.8514L18.8068 40.9073L19.1975 41.0877ZM17.4141 36.599C17.6045 36.629 17.8549 36.7392 18.0754 36.8895C18.7467 37.3604 18.8268 38.0718 18.3559 38.7431C17.8449 39.4645 17.1235 39.5747 16.4723 39.1239C16.2418 38.9635 16.0815 38.7732 15.9913 38.6129L15.7008 38.8433C15.7609 38.9635 15.9212 39.184 16.2719 39.4244C17.1235 40.0256 18.1255 39.8553 18.7366 38.9936C19.3779 38.0919 19.1374 37.1801 18.3559 36.639C18.0153 36.3986 17.7147 36.2884 17.5343 36.2583L17.4141 36.599ZM17.2137 35.7774L16.9131 35.4668L15.9913 36.3685L15.5004 36.3986L15.9112 34.4448L15.5505 34.0741L15.0796 36.3785L13.1959 36.5088L13.5766 36.8995L15.1998 36.7493C15.3401 36.7292 15.4904 36.7092 15.6406 36.6891L15.6507 36.6992L14.4984 37.8313L14.799 38.1419L17.2137 35.7774ZM6.88368 23.9545C6.10217 7.57271 26.5718 -0.262467 38.1342 11.31C27.3333 1.6813 8.21626 7.50258 6.88368 23.9545ZM39.1362 39.6449C38.2244 40.757 37.6834 41.6387 34.4872 43.4623C45.4885 39.725 49.1856 25.2169 43.5948 15.5281C33.385 -2.09602 5.8116 3.76534 6.21238 23.8543C6.2224 24.3252 6.13223 27.6817 6.35265 27.7719C6.42279 27.8019 6.40275 27.6015 6.6332 27.4011C10.681 45.2557 27.4936 48.6824 39.1362 39.6449ZM6.68329 32.3207C10.0899 47.7906 23.7664 49.0932 33.3349 44.1235C21.6022 47.9109 11.9535 44.2738 6.68329 32.3207ZM4.62931 20.5779C5.16034 15.3077 7.81549 11.3601 11.0618 9.03555C5.07017 10.6888 3.73758 14.6364 4.62931 20.5779ZM14.809 5.90949C17.5944 3.94569 19.5582 2.95376 26.3614 3.15415C20.3097 0.519047 18.917 1.79151 14.809 5.90949ZM32.5634 4.53683C33.7958 5.32837 40.8295 6.56075 42.653 12.903C42.0418 5.68906 38.4148 5.14802 32.5634 4.53683ZM44.3062 14.2456C46.1498 17.0811 48.2038 22.5718 47.3721 26.8501C50.6084 22.0808 47.9432 15.8187 44.3062 14.2456ZM40.7994 40.3562C41.12 40.3362 41.2703 40.246 41.5609 40.1959C46.1097 39.4445 48.0835 32.9719 46.6207 30.0863C46.0596 33.8035 45.5987 36.4687 40.7994 40.3562Z" fill="#C59F78"/>
</svg>
