<svg width="13" height="12" viewBox="0 0 13 12" fill="none" xmlns="http://www.w3.org/2000/svg">
<path d="M0.726744 7.97916L0.0177426 11.0391C-0.0067156 11.1509 -0.00587715 11.2668 0.0201966 11.3783C0.0462703 11.4898 0.0969207 11.5941 0.168448 11.6835C0.239974 11.7729 0.330571 11.8452 0.433619 11.8951C0.536667 11.945 0.649563 11.9713 0.76406 11.972C0.81741 11.9773 0.871168 11.9773 0.924518 11.972L4.00308 11.263L9.91391 5.37451L6.61519 2.08325L0.726744 7.97916Z" fill="#B6B6B6"/>
<path d="M11.773 2.4265L9.5714 0.224861C9.42665 0.0808456 9.23077 0 9.02658 0C8.8224 0 8.62652 0.0808456 8.48177 0.224861L7.25781 1.44882L10.5528 4.74381L11.7768 3.51985C11.8484 3.44786 11.9051 3.36245 11.9437 3.26852C11.9823 3.17458 12.002 3.07395 12.0016 2.9724C12.0013 2.87085 11.9809 2.77036 11.9417 2.67669C11.9025 2.58301 11.8451 2.498 11.773 2.4265Z" fill="#B6B6B6"/>
</svg>
