<svg width="23" height="15" viewBox="0 0 23 15" fill="none" xmlns="http://www.w3.org/2000/svg">
<path d="M22.8538 6.88232C22.6484 6.60124 17.7526 0 11.4999 0C5.24716 0 0.3512 6.60124 0.145952 6.88205C-0.0486505 7.14871 -0.0486505 7.51038 0.145952 7.77703C0.3512 8.05811 5.24716 14.6594 11.4999 14.6594C17.7526 14.6594 22.6484 8.05807 22.8538 7.77726C23.0487 7.51065 23.0487 7.14871 22.8538 6.88232ZM11.4999 13.1429C6.89409 13.1429 2.90497 8.7615 1.72411 7.32916C2.90344 5.89557 6.88421 1.51648 11.4999 1.51648C16.1055 1.51648 20.0943 5.89709 21.2757 7.33019C20.0964 8.76374 16.1156 13.1429 11.4999 13.1429Z" fill="#BABABA"/>
<path d="M11.4987 2.78027C8.99016 2.78027 6.94922 4.82121 6.94922 7.32975C6.94922 9.83828 8.99016 11.8792 11.4987 11.8792C14.0072 11.8792 16.0482 9.83828 16.0482 7.32975C16.0482 4.82121 14.0072 2.78027 11.4987 2.78027ZM11.4987 10.3627C9.82625 10.3627 8.46574 9.00215 8.46574 7.32975C8.46574 5.65735 9.82629 4.2968 11.4987 4.2968C13.1711 4.2968 14.5316 5.65735 14.5316 7.32975C14.5316 9.00215 13.1711 10.3627 11.4987 10.3627Z" fill="#BABABA"/>
</svg>
