<svg width="30" height="30" viewBox="0 0 30 30" fill="none" xmlns="http://www.w3.org/2000/svg">
<circle cx="15" cy="15" r="15" fill="#555555"/>
<path d="M17.8293 8H12.1707C9.87096 8 8 9.87096 8 12.1707V17.8293C8 20.129 9.87096 22 12.1707 22H17.8293C20.129 22 22 20.129 22 17.8293V12.1707C22 9.87096 20.129 8 17.8293 8ZM20.5916 17.8293C20.5916 19.3549 19.3549 20.5916 17.8293 20.5916H12.1707C10.6451 20.5916 9.4084 19.3549 9.4084 17.8293V12.1707C9.4084 10.6451 10.6451 9.4084 12.1707 9.4084H17.8293C19.3549 9.4084 20.5916 10.6451 20.5916 12.1707V17.8293Z" fill="white"/>
<path d="M14.9998 11.3792C13.0032 11.3792 11.3789 13.0035 11.3789 15C11.3789 16.9966 13.0032 18.6209 14.9998 18.6209C16.9964 18.6209 18.6207 16.9966 18.6207 15C18.6207 13.0035 16.9964 11.3792 14.9998 11.3792ZM14.9998 17.2125C13.7779 17.2125 12.7873 16.222 12.7873 15C12.7873 13.7781 13.7779 12.7876 14.9998 12.7876C16.2217 12.7876 17.2123 13.7781 17.2123 15C17.2123 16.222 16.2217 17.2125 14.9998 17.2125Z" fill="white"/>
<path d="M18.6255 12.2739C19.1046 12.2739 19.4931 11.8854 19.4931 11.4062C19.4931 10.927 19.1046 10.5386 18.6255 10.5386C18.1463 10.5386 17.7578 10.927 17.7578 11.4062C17.7578 11.8854 18.1463 12.2739 18.6255 12.2739Z" fill="white"/>
</svg>
