<svg width="22" height="20" viewBox="0 0 22 20" fill="none" xmlns="http://www.w3.org/2000/svg">
<path d="M17.9641 10.7345C17.9641 10.6814 17.9641 10.6814 17.9641 10.6283H20.8324C21.4698 10.6283 22.0009 10.0971 22.0009 9.45972V6.43211C22.0009 5.79472 21.4698 5.26356 20.8324 5.26356H17.9641C17.9641 5.21045 17.9641 5.21045 17.9641 5.15733V2.12973C17.9641 1.49234 17.4329 0.961182 16.7956 0.961182H9.67804C9.41246 0.961182 9.19999 1.0143 9.04065 1.17364C8.82818 1.06741 8.61572 0.961182 8.40326 0.961182H1.28574C0.648346 0.961182 0.117188 1.49234 0.117188 2.12973V5.15733C0.117188 5.79472 0.648346 6.32588 1.28574 6.32588H4.15399C4.15399 6.379 4.15399 6.379 4.15399 6.43211V9.45972C4.15399 9.51283 4.15399 9.51283 4.15399 9.56595H1.28574C0.648346 9.56595 0.117188 10.0971 0.117188 10.7345V13.7621C0.117188 14.3995 0.648346 14.9306 1.28574 14.9306H4.15399C4.15399 14.9838 4.15399 14.9838 4.15399 15.0369V18.0645C4.15399 18.7019 4.68515 19.233 5.32254 19.233H12.4401C12.7056 19.233 12.9181 19.1799 13.0775 19.0206C13.2899 19.1268 13.5024 19.233 13.7148 19.233H20.8324C21.4698 19.233 22.0009 18.7019 22.0009 18.0645V15.0369C22.0009 14.3995 21.4698 13.8683 20.8324 13.8683H17.9641C17.9641 13.8152 17.9641 13.8152 17.9641 13.7621V10.7345ZM9.67804 1.97038H16.7956C16.8487 1.97038 16.9018 2.0235 16.9018 2.07661V5.10422C16.9018 5.15733 16.8487 5.21045 16.7956 5.21045H13.7148H12.4401H9.73115C9.67804 5.21045 9.62492 5.15733 9.62492 5.10422V2.07661C9.57181 2.0235 9.62492 1.97038 9.67804 1.97038ZM9.67804 6.379H12.3869C12.4401 6.379 12.4932 6.43211 12.4932 6.48523V9.51283C12.4932 9.56595 12.4401 9.61906 12.3869 9.61906H9.67804H8.40326H5.32254C5.26942 9.61906 5.21631 9.56595 5.21631 9.51283V6.48523C5.21631 6.43211 5.26942 6.379 5.32254 6.379H8.40326H9.67804ZM1.28574 5.26356C1.23262 5.26356 1.1795 5.21045 1.1795 5.15733V2.12973C1.1795 2.07661 1.23262 2.0235 1.28574 2.0235H8.40326C8.45637 2.0235 8.50949 2.07661 8.50949 2.12973V5.15733C8.50949 5.21045 8.45637 5.26356 8.40326 5.26356H5.32254H1.28574ZM1.28574 13.9746C1.23262 13.9746 1.1795 13.9214 1.1795 13.8683V10.8407C1.1795 10.7876 1.23262 10.7345 1.28574 10.7345H5.32254H8.40326C8.45637 10.7345 8.50949 10.7876 8.50949 10.8407V13.8683C8.50949 13.9214 8.45637 13.9746 8.40326 13.9746H5.32254H1.28574ZM12.4401 18.3301H5.32254C5.26942 18.3301 5.21631 18.2769 5.21631 18.2238V15.1962C5.21631 15.1431 5.26942 15.09 5.32254 15.09H8.40326H9.67804H12.3869C12.4401 15.09 12.4932 15.1431 12.4932 15.1962V18.2238C12.5463 18.2769 12.4932 18.3301 12.4401 18.3301ZM12.4401 13.9214H9.73115C9.67804 13.9214 9.62492 13.8683 9.62492 13.8152V10.7876C9.62492 10.7345 9.67804 10.6814 9.73115 10.6814H12.4401H13.7148H16.7956C16.8487 10.6814 16.9018 10.7345 16.9018 10.7876V13.8152C16.9018 13.8683 16.8487 13.9214 16.7956 13.9214H13.7148H12.4401ZM20.8324 15.0369C20.8855 15.0369 20.9386 15.09 20.9386 15.1431V18.1707C20.9386 18.2238 20.8855 18.2769 20.8324 18.2769H13.7148C13.6617 18.2769 13.6086 18.2238 13.6086 18.1707V15.1431C13.6086 15.09 13.6617 15.0369 13.7148 15.0369H16.7956H20.8324ZM16.7956 9.61906H13.7148C13.6617 9.61906 13.6086 9.56595 13.6086 9.51283V6.48523C13.6086 6.43211 13.6617 6.379 13.7148 6.379H16.7956H20.8324C20.8855 6.379 20.9386 6.43211 20.9386 6.48523V9.51283C20.9386 9.56595 20.8855 9.61906 20.8324 9.61906H16.7956Z" fill="#757575"/>
</svg>
