<svg width="13" height="20" viewBox="0 0 13 20" fill="none" xmlns="http://www.w3.org/2000/svg">
<path d="M10.2174 0C10.971 0 11.6232 0.269504 12.1739 0.808511C12.7246 1.34752 13 1.98582 13 2.7234V17.2766C13 18.0142 12.7246 18.6525 12.1739 19.1915C11.6232 19.7305 10.971 20 10.2174 20H2.78261C2 20 1.34058 19.7305 0.804348 19.1915C0.268116 18.6525 0 18.0142 0 17.2766V2.7234C0 1.98582 0.268116 1.34752 0.804348 0.808511C1.34058 0.269504 2 0 2.78261 0H10.2174ZM8.34783 18.1702V17.2766H4.65217V18.1702H8.34783ZM11.3478 15.4468V2.7234H1.6087V15.4468H11.3478Z" fill="#CECECE"/>
</svg>
