<svg width="21" height="16" viewBox="0 0 21 16" fill="none" xmlns="http://www.w3.org/2000/svg">
<path d="M20.7097 3.84401C20.7054 3.80257 20.6967 3.76287 20.6812 3.72486C20.6726 3.70329 20.6631 3.68427 20.651 3.66444C20.6302 3.62992 20.6043 3.60143 20.5741 3.57379C20.562 3.56258 20.5568 3.54704 20.543 3.53753C20.537 3.5332 20.5283 3.5332 20.5223 3.52891C20.5145 3.52373 20.5102 3.51596 20.5016 3.51078L14.4582 0.0574096C14.3538 -0.00216061 14.2295 -0.0168508 14.1155 0.0202996L0.302141 4.33696C0.283161 4.34214 0.268471 4.35594 0.250341 4.3646C0.239131 4.36978 0.226181 4.36804 0.215821 4.37411C0.207201 4.37929 0.202871 4.38965 0.194251 4.39568C0.145041 4.4285 0.105341 4.46905 0.0742605 4.51656C0.0690804 4.52518 0.0613104 4.53036 0.0561304 4.53902C0.0233101 4.59859 0.00692018 4.66419 0.00433017 4.73327C0.00433017 4.73845 0 4.74278 0 4.74796V11.6547C0 11.8092 0.0828803 11.9525 0.217561 12.0294L6.2609 15.4827C6.3274 15.5207 6.40077 15.5397 6.47503 15.5397C6.51732 15.5397 6.56135 15.5337 6.60279 15.5198L20.4162 11.2031C20.5966 11.147 20.72 10.9804 20.72 10.7913V3.8846C20.72 3.87076 20.7114 3.8587 20.7097 3.84401ZM6.0433 14.3638L0.863283 11.4042V5.4921L6.0433 8.45163V14.3638ZM6.52594 7.73335L1.50561 4.86447L14.1932 0.899163L19.2135 3.76805L6.52594 7.73335ZM19.8567 10.4736L6.90667 14.5209V8.51813L19.8567 4.47168V10.4736Z" fill="#E10000"/>
</svg>
