<svg width="11" height="9" viewBox="0 0 11 9" fill="none" xmlns="http://www.w3.org/2000/svg">
<path d="M10.8502 4.13854L7.57678 0.865122C7.37706 0.665402 7.05316 0.665402 6.85344 0.865122C6.65368 1.06488 6.65368 1.38871 6.85344 1.58847L9.25371 3.98874H0.511472C0.229017 3.98874 0 4.21776 0 4.50021C0 4.78263 0.229017 5.01169 0.511472 5.01169H9.25371L6.85352 7.41196C6.65376 7.61172 6.65376 7.93555 6.85352 8.13531C6.95336 8.2351 7.08429 8.28511 7.21519 8.28511C7.34609 8.28511 7.47698 8.2351 7.57686 8.13531L10.8502 4.86189C11.05 4.66213 11.05 4.3383 10.8502 4.13854Z" fill="#a0a0a0"/>
</svg>
