<svg width="23" height="23" viewBox="0 0 23 23" fill="none" xmlns="http://www.w3.org/2000/svg">
<path d="M22.4532 3.09605C22.3342 2.95289 22.1218 2.93326 21.9787 3.05212C21.8356 3.17098 21.8159 3.38342 21.9348 3.52654C22.173 3.81336 22.2364 4.20652 22.1001 4.55269L21.1905 6.86513C20.9845 7.38825 20.3913 7.64655 19.8682 7.44094L13.5513 4.95586C13.2979 4.85627 13.0985 4.66387 12.9899 4.41415C12.8812 4.16434 12.8763 3.88717 12.9761 3.63363L13.8858 1.32101C13.9854 1.06765 14.1778 0.868287 14.4276 0.759531C14.6774 0.650775 14.9546 0.645789 15.208 0.745381L20.8973 2.98379C21.0705 3.05194 21.2661 2.96677 21.3342 2.79364C21.4023 2.62051 21.3171 2.42492 21.144 2.35677L15.4546 0.118316C15.0337 -0.0471313 14.5734 -0.0388207 14.1586 0.14172C13.7437 0.322306 13.4241 0.653605 13.2587 1.07448L12.3491 3.38692C12.1834 3.80784 12.1915 4.26815 12.372 4.68301C12.5526 5.09791 12.8838 5.41757 13.3047 5.58297L19.6216 8.06805C19.8243 8.14774 20.0333 8.18548 20.239 8.18543C20.915 8.18543 21.5553 7.7779 21.8175 7.11189L22.7271 4.7994C22.9534 4.22467 22.8484 3.57195 22.4532 3.09605Z" fill="#B6B6B6"/>
<path d="M5.51562 12.0766V14.5616C5.51562 15.4955 6.27534 16.2552 7.20913 16.2552H7.76796C7.95403 16.2552 8.10488 16.1044 8.10488 15.9183C8.10488 15.7322 7.95403 15.5814 7.76796 15.5814H7.20913C6.64689 15.5814 6.18945 15.1239 6.18945 14.5616V12.0766C6.18945 11.5143 6.64689 11.0569 7.20913 11.0569H13.9967C14.559 11.0569 15.0165 11.5143 15.0165 12.0766V14.5616C15.0165 15.1239 14.559 15.5814 13.9967 15.5814H9.11562C8.92955 15.5814 8.77871 15.7322 8.77871 15.9183C8.77871 16.1044 8.92955 16.2552 9.11562 16.2552H13.9968C14.9306 16.2552 15.6903 15.4955 15.6903 14.5616V12.0766C15.6903 11.1428 14.9306 10.3831 13.9968 10.3831H7.20913C6.27534 10.3831 5.51562 11.1428 5.51562 12.0766Z" fill="#B6B6B6"/>
<path d="M14.5582 8.86715C13.6014 8.89101 12.775 8.91158 12.3338 8.84092C11.8567 8.76451 11.5957 8.51371 11.4873 8.0277C11.38 7.5465 11.4449 6.94162 11.502 6.408C11.5317 6.1315 11.5597 5.87028 11.5597 5.65246C11.5597 4.27838 10.6287 3.63843 8.62978 3.63843H1.84186C0.908111 3.63843 0.148438 4.3981 0.148438 5.33185V21.3066C0.148438 22.2404 0.908111 23 1.84186 23H8.62973H8.62982H8.62987H12.5793H12.5794H19.3671C20.3009 23 21.0606 22.2404 21.0606 21.3066V10.7202C21.0606 10.3408 20.9205 10.0118 20.6443 9.74232C19.6178 8.74106 16.8124 8.811 14.5582 8.86715ZM20.3868 15.5814H17.9481C17.3858 15.5814 16.9282 15.124 16.9282 14.5619V12.0766C16.9282 11.5145 17.3858 11.0571 17.9481 11.0571H20.3868V15.5814H20.3868ZM10.8858 5.65246C10.8858 5.8343 10.8597 6.07809 10.8321 6.33617C10.7724 6.89252 10.6982 7.58486 10.8296 8.17428C10.9972 8.926 11.4805 9.38659 12.2272 9.50621C12.7297 9.58671 13.5848 9.56542 14.575 9.54071C16.5905 9.49054 19.3506 9.42171 20.1738 10.2246C20.2256 10.2751 20.2671 10.3277 20.2995 10.3833H17.9481C17.0142 10.3833 16.2544 11.1429 16.2544 12.0766V14.5618C16.2544 15.4955 17.0142 16.2551 17.9481 16.2551H20.3868V17.4703C20.1029 17.2555 19.7497 17.1279 19.3671 17.1279H12.5793C11.6455 17.1279 10.8858 17.8876 10.8858 18.8213V21.3065C10.8858 21.6891 11.0135 22.0423 11.2282 22.3262H9.98076C10.1955 22.0423 10.3232 21.6891 10.3232 21.3065V18.8214C10.3232 17.8876 9.56348 17.128 8.62969 17.128H1.84186C1.4593 17.128 1.10608 17.2556 0.822266 17.4704V16.2552H3.26089C4.19482 16.2552 4.95463 15.4956 4.95463 14.5619V12.0766C4.95463 11.1429 4.19482 10.3833 3.26089 10.3833H0.822266V9.16809C1.10613 9.38286 1.4593 9.51048 1.84186 9.51048H8.62973C9.56352 9.51048 10.3232 8.75081 10.3232 7.81706V5.33189C10.3232 5.03101 10.244 4.7484 10.1058 4.50326C10.8055 4.75366 10.8858 5.21298 10.8858 5.65246ZM0.822266 11.0571H3.26089C3.82327 11.0571 4.2808 11.5145 4.2808 12.0766V14.5619C4.2808 15.124 3.82327 15.5814 3.26089 15.5814H0.822266V11.0571ZM0.822266 5.33185C0.822266 4.76965 1.27966 4.31221 1.84186 4.31221H8.62973C9.19193 4.31221 9.64937 4.76961 9.64937 5.33185V7.81702C9.64937 8.37921 9.19197 8.83665 8.62973 8.83665H1.84186C1.27966 8.83665 0.822266 8.37926 0.822266 7.81702V5.33185ZM0.822266 21.3066V18.8214C0.822266 18.2592 1.27966 17.8018 1.84186 17.8018H8.62973C9.19193 17.8018 9.64937 18.2592 9.64937 18.8214V21.3066C9.64937 21.8688 9.19197 22.3262 8.62973 22.3262H1.84186C1.27966 22.3262 0.822266 21.8688 0.822266 21.3066ZM19.3672 22.3262H12.5795H12.5794C12.0172 22.3262 11.5597 21.8688 11.5597 21.3066V18.8214C11.5597 18.2592 12.0171 17.8018 12.5794 17.8018H19.3672C19.9294 17.8018 20.3869 18.2592 20.3869 18.8214V21.3066C20.3868 21.8688 19.9294 22.3262 19.3672 22.3262Z" fill="#B6B6B6"/>
</svg>
