<svg width="11" height="9" viewBox="0 0 11 9" fill="none" xmlns="http://www.w3.org/2000/svg">
<path d="M0.1498 4.13854L3.42322 0.865122C3.62294 0.665402 3.94684 0.665402 4.14656 0.865122C4.34632 1.06488 4.34632 1.38871 4.14656 1.58847L1.74629 3.98874H10.4885C10.771 3.98874 11 4.21776 11 4.50021C11 4.78263 10.771 5.01169 10.4885 5.01169H1.74629L4.14648 7.41196C4.34624 7.61172 4.34624 7.93555 4.14648 8.13531C4.04664 8.2351 3.91571 8.28511 3.78481 8.28511C3.65391 8.28511 3.52302 8.2351 3.42314 8.13531L0.1498 4.86189C-0.0499601 4.66213 -0.0499601 4.3383 0.1498 4.13854Z" fill="#a0a0a0"/>
</svg>
