<svg width="24" height="24" viewBox="0 0 24 24" fill="none" xmlns="http://www.w3.org/2000/svg">
<path d="M21.9875 15.1422H15.1409V8.29011C15.1409 8.09068 14.9796 7.92947 14.7802 7.92947H7.93394V1.07743C7.93394 0.878 7.77274 0.716797 7.57331 0.716797H0.360634C0.161203 0.716797 0 0.878 0 1.07743V8.29011V15.5028V22.7155C0 22.9149 0.161203 23.0761 0.360634 23.0761H7.56754H7.57331H14.7748H14.7806H21.9875C22.1869 23.0761 22.3481 22.9149 22.3481 22.7155V15.5028C22.3481 15.3034 22.1866 15.1422 21.9875 15.1422ZM0.721268 8.65074H7.20691V15.1422H0.721268V8.65074ZM7.93394 15.8634H14.4142V22.3548H7.93394V15.8634ZM14.4196 15.1422H7.93394V8.65074H14.4196V15.1422ZM0.721268 1.43806H7.21268V7.92947H0.721268V1.43806ZM0.721268 15.8634H7.20691V22.3548H0.721268V15.8634ZM21.6269 22.3548H15.1409V15.8634H21.6265V22.3548H21.6269Z" fill="#B6B6B6"/>
<path d="M6.49154 1.79858C6.29211 1.79858 6.1309 1.95979 6.1309 2.15922V6.84746H1.44267C1.24323 6.84746 1.08203 7.00866 1.08203 7.20809C1.08203 7.40752 1.24323 7.56873 1.44267 7.56873H6.49154C6.69097 7.56873 6.85217 7.40752 6.85217 7.20809V2.15922C6.85217 1.95979 6.69097 1.79858 6.49154 1.79858Z" fill="#B6B6B6"/>
<path d="M6.49154 9.01147C6.29211 9.01147 6.1309 9.17268 6.1309 9.37211V14.0603H1.44267C1.24323 14.0603 1.08203 14.2216 1.08203 14.421C1.08203 14.6204 1.24323 14.7816 1.44267 14.7816H6.49154C6.69097 14.7816 6.85217 14.6204 6.85217 14.421V9.37211C6.85217 9.17268 6.69097 9.01147 6.49154 9.01147Z" fill="#B6B6B6"/>
<path d="M6.49154 16.2239C6.29211 16.2239 6.1309 16.3851 6.1309 16.5845V21.2728H1.44267C1.24323 21.2728 1.08203 21.434 1.08203 21.6334C1.08203 21.8328 1.24323 21.994 1.44267 21.994H6.49154C6.69097 21.994 6.85217 21.8328 6.85217 21.6334V16.5845C6.85217 16.3851 6.69097 16.2239 6.49154 16.2239Z" fill="#B6B6B6"/>
<path d="M8.65751 14.7816H13.7064C13.9058 14.7816 14.067 14.6204 14.067 14.421V9.37211C14.067 9.17268 13.9058 9.01147 13.7064 9.01147C13.507 9.01147 13.3457 9.17268 13.3457 9.37211V14.0603H8.65751C8.45808 14.0603 8.29688 14.2216 8.29688 14.421C8.29688 14.6204 8.45808 14.7816 8.65751 14.7816Z" fill="#B6B6B6"/>
<path d="M13.7064 16.2239C13.507 16.2239 13.3457 16.3851 13.3457 16.5845V21.2728H8.65751C8.45808 21.2728 8.29688 21.434 8.29688 21.6334C8.29688 21.8328 8.45808 21.994 8.65751 21.994H13.7064C13.9058 21.994 14.067 21.8328 14.067 21.6334V16.5845C14.067 16.3851 13.9058 16.2239 13.7064 16.2239Z" fill="#B6B6B6"/>
<path d="M15.8684 21.994H20.9173C21.1168 21.994 21.278 21.8328 21.278 21.6334V16.5845C21.278 16.3851 21.1168 16.2239 20.9173 16.2239C20.7179 16.2239 20.5567 16.3851 20.5567 16.5845V21.2728H15.8684C15.669 21.2728 15.5078 21.434 15.5078 21.6334C15.5078 21.8328 15.669 21.994 15.8684 21.994Z" fill="#B6B6B6"/>
<path d="M8.6497 1.79158H14.4195C14.6189 1.79158 14.7801 1.63038 14.7801 1.43095C14.7801 1.23152 14.6189 1.07031 14.4195 1.07031H8.6497C8.45027 1.07031 8.28906 1.23152 8.28906 1.43095C8.28906 1.63038 8.45063 1.79158 8.6497 1.79158Z" fill="#B6B6B6"/>
<path d="M8.6497 3.2347H14.4195C14.6189 3.2347 14.7801 3.07349 14.7801 2.87406C14.7801 2.67463 14.6189 2.51343 14.4195 2.51343H8.6497C8.45027 2.51343 8.28906 2.67463 8.28906 2.87406C8.28906 3.07349 8.45063 3.2347 8.6497 3.2347Z" fill="#B6B6B6"/>
<path d="M8.6497 4.67805H14.4195C14.6189 4.67805 14.7801 4.51685 14.7801 4.31742C14.7801 4.11799 14.6189 3.95679 14.4195 3.95679H8.6497C8.45027 3.95679 8.28906 4.11799 8.28906 4.31742C8.28906 4.51685 8.45063 4.67805 8.6497 4.67805Z" fill="#B6B6B6"/>
<path d="M8.6497 6.12117H14.4195C14.6189 6.12117 14.7801 5.95997 14.7801 5.76054C14.7801 5.56111 14.6189 5.3999 14.4195 5.3999H8.6497C8.45027 5.3999 8.28906 5.56111 8.28906 5.76054C8.28906 5.95997 8.45063 6.12117 8.6497 6.12117Z" fill="#B6B6B6"/>
<path d="M8.6497 7.56355H14.4195C14.6189 7.56355 14.7801 7.40235 14.7801 7.20292C14.7801 7.00349 14.6189 6.84229 14.4195 6.84229H8.6497C8.45027 6.84229 8.28906 7.00349 8.28906 7.20292C8.28906 7.40235 8.45063 7.56355 8.6497 7.56355Z" fill="#B6B6B6"/>
<path d="M19.9164 0.11955C19.6492 0.430416 17.3047 3.199 17.3047 4.68445C17.3047 5.96038 18.1381 7.04372 19.2885 7.42347V8.64998H18.9279C18.7285 8.64998 18.5673 8.81119 18.5673 9.01062C18.5673 9.21005 18.7285 9.37125 18.9279 9.37125H18.9283V12.4356C18.9283 12.4363 18.9279 12.4366 18.9279 12.4374C18.9279 13.1334 19.4941 13.6996 20.1901 13.6996C20.8861 13.6996 21.4523 13.1334 21.4523 12.4374C21.4523 12.4366 21.452 12.4363 21.452 12.4356V9.37125C21.6514 9.37125 21.8126 9.21005 21.8126 9.01062C21.8126 8.81119 21.6514 8.64998 21.452 8.64998H21.0913V7.42347C22.2414 7.04336 23.0748 5.96002 23.0748 4.68445C23.0748 3.199 20.7303 0.430416 20.4631 0.11955C20.3264 -0.03985 20.0531 -0.03985 19.9164 0.11955ZM20.7311 12.4384C20.7303 12.7363 20.488 12.9783 20.1901 12.9783C19.8922 12.9783 19.6499 12.7363 19.6492 12.4384C19.6492 12.4381 19.6495 12.4377 19.6495 12.4374V9.37125H20.7307V12.4374C20.7307 12.4377 20.7311 12.4381 20.7311 12.4384ZM20.3701 8.64998H20.0098V7.56051C20.0697 7.56448 20.1292 7.56952 20.1898 7.56952C20.2507 7.56952 20.3102 7.56412 20.3701 7.56051V8.64998ZM20.1898 6.84826C18.9964 6.84826 18.026 5.87779 18.026 4.68445C18.026 3.77025 19.4029 1.8863 20.1898 0.917993C20.977 1.8863 22.3536 3.76953 22.3536 4.68445C22.3536 5.87779 21.3831 6.84826 20.1898 6.84826Z" fill="#B6B6B6"/>
</svg>
