<svg width="15" height="13" viewBox="0 0 15 13" fill="none" xmlns="http://www.w3.org/2000/svg">
<path d="M14.7658 8.90375C14.6096 8.74581 14.4198 8.66678 14.1965 8.66678H13.3931V7.0417C13.3931 6.74834 13.287 6.49429 13.075 6.27999C12.863 6.06549 12.6117 5.95829 12.3215 5.95829H8.03586V4.33325H8.8393C9.06265 4.33325 9.25236 4.25428 9.40857 4.09628C9.56481 3.93836 9.64285 3.74653 9.64285 3.52076V0.812461C9.64285 0.586749 9.56481 0.394862 9.40857 0.236947C9.25236 0.0789428 9.06265 4.25196e-08 8.8393 4.25196e-08H6.16076C5.93753 4.25196e-08 5.74784 0.0789428 5.59157 0.236947C5.43531 0.394862 5.35726 0.58672 5.35726 0.812461V3.52076C5.35726 3.74653 5.43531 3.93827 5.59157 4.09628C5.74775 4.25428 5.93753 4.33325 6.16076 4.33325H6.96431V5.95829H2.6786C2.38841 5.95829 2.13733 6.06558 1.92521 6.27999C1.71315 6.49429 1.60717 6.74834 1.60717 7.0417V8.66678H0.803495C0.580354 8.66678 0.390577 8.74581 0.234311 8.90375C0.0780745 9.06176 0 9.25347 0 9.47927V12.1875C0 12.4133 0.0780745 12.6052 0.234311 12.7631C0.390577 12.9211 0.580354 13 0.803495 13H3.48216C3.7053 13 3.89507 12.921 4.05134 12.7631C4.20761 12.6052 4.28565 12.4133 4.28565 12.1875V9.47927C4.28565 9.25347 4.20761 9.06173 4.05134 8.90375C3.89507 8.74581 3.7053 8.66678 3.48216 8.66678H2.67851V7.0417H6.96422V8.66678H6.16067C5.93744 8.66678 5.74775 8.74581 5.59149 8.90375C5.43522 9.06173 5.35717 9.25347 5.35717 9.47927V12.1875C5.35717 12.4133 5.43522 12.6052 5.59149 12.7631C5.74766 12.9211 5.93744 13 6.16067 13H8.83921C9.06256 13 9.25219 12.921 9.40851 12.7631C9.56463 12.6051 9.64288 12.4133 9.64288 12.1875V9.47927C9.64288 9.25347 9.56484 9.06173 9.40851 8.90375C9.25219 8.74581 9.06256 8.66678 8.83921 8.66678H8.03578V7.0417H12.3216V8.66678H11.5179C11.2948 8.66678 11.1049 8.74581 10.9486 8.90375C10.7925 9.06173 10.7145 9.25347 10.7145 9.47927V12.1875C10.7145 12.4133 10.7925 12.6052 10.9486 12.7631C11.1049 12.9211 11.2948 13 11.5179 13H14.1966C14.4197 13 14.6094 12.921 14.7656 12.7631C14.922 12.6052 15 12.4133 15 12.1875V9.47927C15 9.25347 14.9219 9.06176 14.7658 8.90375Z" fill="white"/>
</svg>
