<svg width="21" height="21" viewBox="0 0 21 21" fill="none" xmlns="http://www.w3.org/2000/svg">
<path d="M20.7181 18.5941L20.1996 6.15022C20.1486 4.9253 19.1097 3.92876 17.8837 3.92876H16.2033V2.5757C16.2033 1.15544 15.0478 0 13.6276 0C12.2074 0 11.0519 1.15548 11.0519 2.5757V3.92876H9.37144C8.14549 3.92876 7.11269 4.77903 7.06908 5.82418L7.03892 6.54791H2.82349C1.60011 6.54791 0.555242 7.54191 0.494232 8.76362L0.00285191 18.5897C-0.0273066 19.1935 0.18254 19.7641 0.593715 20.1962C1.00485 20.6284 1.56421 20.8664 2.16868 20.8664H11.9906H18.5384C19.142 20.8664 19.7022 20.629 20.1157 20.1979C20.5293 19.7667 20.7432 19.1972 20.7181 18.5941ZM12.2745 2.5757C12.2745 1.8296 12.8815 1.22264 13.6275 1.22264C14.3736 1.22264 14.9806 1.82964 14.9806 2.5757V3.92876H12.2745V2.5757ZM1.47952 19.3535C1.30142 19.1663 1.21066 18.9167 1.22395 18.6507L1.71533 8.82467C1.74385 8.25329 2.25133 7.77059 2.82345 7.77059H11.3357C11.9079 7.77059 12.4154 8.25329 12.4439 8.82471L12.9352 18.6507C12.9485 18.9167 12.8578 19.1664 12.6797 19.3535C12.5016 19.5407 12.2569 19.6438 11.9905 19.6438H2.16864C1.90235 19.6438 1.65762 19.5407 1.47952 19.3535ZM19.2334 19.3515C19.0526 19.54 18.8058 19.6438 18.5385 19.6438H13.9473C14.102 19.3214 14.175 18.962 14.1564 18.5897L13.665 8.7637C13.604 7.54191 12.5591 6.54795 11.3358 6.54795H8.26258L8.29062 5.87513C8.30493 5.53283 8.75229 5.1514 9.3714 5.1514H17.8837C18.4532 5.1514 18.9544 5.63211 18.9781 6.20108L19.4965 18.645C19.5076 18.9121 19.4142 19.163 19.2334 19.3515Z" fill="#828282"/>
<path d="M9.04395 8.51221C8.70633 8.51221 8.43263 8.78592 8.43263 9.12353V11.0879C8.43263 11.834 7.82566 12.4409 7.07961 12.4409C6.33351 12.4409 5.72655 11.8339 5.72655 11.0879V9.12353C5.72655 8.78592 5.45284 8.51221 5.11523 8.51221C4.77762 8.51221 4.50391 8.78592 4.50391 9.12353V11.0879C4.50391 12.5081 5.65939 13.6636 7.07961 13.6636C8.49983 13.6636 9.65527 12.5081 9.65527 11.0879V9.12353C9.65527 8.78592 9.38156 8.51221 9.04395 8.51221Z" fill="#828282"/>
</svg>
