<svg width="17" height="15" viewBox="0 0 17 15" fill="none" xmlns="http://www.w3.org/2000/svg">
<path d="M13.8641 7.59223C13.8641 7.55097 13.8641 7.55097 13.8641 7.50971H16.0922C16.5874 7.50971 17 7.09709 17 6.60194V4.25C17 3.75485 16.5874 3.34223 16.0922 3.34223H13.8641C13.8641 3.30097 13.8641 3.30097 13.8641 3.25971V0.907767C13.8641 0.412622 13.4515 0 12.9563 0H7.42718C7.22087 0 7.05582 0.041262 6.93204 0.165048C6.76699 0.0825241 6.60194 0 6.43689 0H0.907767C0.412621 0 0 0.412622 0 0.907767V3.25971C0 3.75485 0.412621 4.16748 0.907767 4.16748H3.13592C3.13592 4.20874 3.13592 4.20874 3.13592 4.25V6.60194C3.13592 6.6432 3.13592 6.6432 3.13592 6.68447H0.907767C0.412621 6.68447 0 7.09709 0 7.59223V9.94417C0 10.4393 0.412621 10.8519 0.907767 10.8519H3.13592C3.13592 10.8932 3.13592 10.8932 3.13592 10.9345V13.2864C3.13592 13.7816 3.54854 14.1942 4.04369 14.1942H9.57281C9.77913 14.1942 9.94417 14.1529 10.068 14.0291C10.233 14.1117 10.3981 14.1942 10.5631 14.1942H16.0922C16.5874 14.1942 17 13.7816 17 13.2864V10.9345C17 10.4393 16.5874 10.0267 16.0922 10.0267H13.8641C13.8641 9.98544 13.8641 9.98544 13.8641 9.94417V7.59223ZM7.42718 0.78398H12.9563C12.9976 0.78398 13.0388 0.825243 13.0388 0.866505V3.21845C13.0388 3.25971 12.9976 3.30097 12.9563 3.30097H10.5631H9.57281H7.46845C7.42718 3.30097 7.38592 3.25971 7.38592 3.21845V0.866505C7.34466 0.825243 7.38592 0.78398 7.42718 0.78398ZM7.42718 4.20874H9.53155C9.57282 4.20874 9.61408 4.25 9.61408 4.29126V6.6432C9.61408 6.68447 9.57282 6.72573 9.53155 6.72573H7.42718H6.43689H4.04369C4.00243 6.72573 3.96117 6.68447 3.96117 6.6432V4.29126C3.96117 4.25 4.00243 4.20874 4.04369 4.20874H6.43689H7.42718ZM0.907767 3.34223C0.866505 3.34223 0.825243 3.30097 0.825243 3.25971V0.907767C0.825243 0.866505 0.866505 0.825243 0.907767 0.825243H6.43689C6.47816 0.825243 6.51942 0.866505 6.51942 0.907767V3.25971C6.51942 3.30097 6.47816 3.34223 6.43689 3.34223H4.04369H0.907767ZM0.907767 10.1092C0.866505 10.1092 0.825243 10.068 0.825243 10.0267V7.67476C0.825243 7.63349 0.866505 7.59223 0.907767 7.59223H4.04369H6.43689C6.47816 7.59223 6.51942 7.63349 6.51942 7.67476V10.0267C6.51942 10.068 6.47816 10.1092 6.43689 10.1092H4.04369H0.907767ZM9.57281 13.4927H4.04369C4.00243 13.4927 3.96117 13.4515 3.96117 13.4102V11.0583C3.96117 11.017 4.00243 10.9757 4.04369 10.9757H6.43689H7.42718H9.53155C9.57282 10.9757 9.61408 11.017 9.61408 11.0583V13.4102C9.65534 13.4515 9.61408 13.4927 9.57281 13.4927ZM9.57281 10.068H7.46845C7.42718 10.068 7.38592 10.0267 7.38592 9.98544V7.6335C7.38592 7.59223 7.42718 7.55097 7.46845 7.55097H9.57281H10.5631H12.9563C12.9976 7.55097 13.0388 7.59223 13.0388 7.6335V9.98544C13.0388 10.0267 12.9976 10.068 12.9563 10.068H10.5631H9.57281ZM16.0922 10.9345C16.1335 10.9345 16.1748 10.9757 16.1748 11.017V13.3689C16.1748 13.4102 16.1335 13.4515 16.0922 13.4515H10.5631C10.5218 13.4515 10.4806 13.4102 10.4806 13.3689V11.017C10.4806 10.9757 10.5218 10.9345 10.5631 10.9345H12.9563H16.0922ZM12.9563 6.72573H10.5631C10.5218 6.72573 10.4806 6.68447 10.4806 6.6432V4.29126C10.4806 4.25 10.5218 4.20874 10.5631 4.20874H12.9563H16.0922C16.1335 4.20874 16.1748 4.25 16.1748 4.29126V6.6432C16.1748 6.68447 16.1335 6.72573 16.0922 6.72573H12.9563Z" fill="#757575"/>
</svg>
